<?xml version="1.0" encoding="utf-8"?>
<!-- Generator: Adobe Illustrator 22.0.1, SVG Export Plug-In . SVG Version: 6.00 Build 0)  -->
<svg version="1.1" id="Layer_1" xmlns="http://www.w3.org/2000/svg" xmlns:xlink="http://www.w3.org/1999/xlink" x="0px" y="0px"
	 viewBox="0 0 528 437" style="enable-background:new 0 0 528 437;" xml:space="preserve">
<style type="text/css">
	.st0{fill:#6CBF5B;}
	.st1{fill:#046D93;}
</style>
<path class="st0" d="M407,82.3v229.5c0,5.1-4.2,9.3-9.3,9.3H124.3c-5.1,0-9.3-4.2-9.3-9.3V82.3c0-5.1,4.2-9.3,9.3-9.3h40.4
	c5.1,0,9.3,4.2,9.3,9.3v170.5c0,5.1,4.2,9.3,9.3,9.3h155.4c5.1,0,9.3-4.2,9.3-9.3V82.3c0-5.1,4.2-9.3,9.3-9.3h40.4
	C402.8,73,407,77.2,407,82.3z"/>
<path class="st1" d="M320.6,186.8v32.8c0,5.1-4.2,9.3-9.3,9.3H210.7c-5.1,0-9.3-4.2-9.3-9.3V82.3c0-5.1,4.2-9.3,9.3-9.3h32.8
	c5.1,0,9.3,4.2,9.3,9.3v85.9c0,5.1,4.2,9.3,9.3,9.3h49.1C316.4,177.5,320.6,181.7,320.6,186.8z"/>
</svg>
